<?xml version="1.0" encoding="utf-8"?>
<!-- Generator: Adobe Illustrator 16.0.3, SVG Export Plug-In . SVG Version: 6.00 Build 0)  -->
<!DOCTYPE svg PUBLIC "-//W3C//DTD SVG 1.1//EN" "http://www.w3.org/Graphics/SVG/1.1/DTD/svg11.dtd">
<svg version="1.1" id="Layer_1" xmlns="http://www.w3.org/2000/svg" xmlns:xlink="http://www.w3.org/1999/xlink" x="0px" y="0px"
	 width="17.646px" height="17.705px" viewBox="0 0 17.646 17.705" enable-background="new 0 0 17.646 17.705" xml:space="preserve">
<g>
	<g>
		<path fill="#323232" d="M15.547,9.662c0.049-0.247,0.049-0.588,0.049-0.883s-0.049-0.59-0.049-0.884l1.914-1.472
			c0.195-0.146,0.248-0.342,0.1-0.589l-1.865-2.942c-0.1-0.195-0.342-0.246-0.541-0.195L12.9,3.58
			c-0.443-0.341-0.982-0.688-1.521-0.883l-0.293-2.355C11.037,0.195,10.84,0,10.596,0H6.965C6.719,0,6.57,0.195,6.523,0.342
			L6.182,2.697C5.641,2.893,5.104,3.239,4.662,3.58L2.404,2.697c-0.193-0.1-0.439,0-0.541,0.195L0.051,5.884
			c-0.1,0.194-0.047,0.44,0.1,0.589l1.961,1.473c0,0.293-0.047,0.587-0.047,0.881c0,0.296,0.047,0.589,0.047,0.885l-1.914,1.47
			c-0.193,0.147-0.246,0.343-0.098,0.59l1.811,3.042c0.098,0.195,0.342,0.246,0.541,0.195l2.254-0.883
			c0.441,0.342,0.982,0.637,1.52,0.883l0.344,2.355c0.045,0.195,0.246,0.342,0.441,0.342h3.631c0.246,0,0.393-0.195,0.441-0.342
			l0.342-2.355c0.541-0.246,1.029-0.541,1.52-0.883l2.254,0.883c0.248,0.1,0.443,0,0.541-0.195l1.814-3.042
			c0.1-0.194,0.049-0.442-0.098-0.59L15.547,9.662z M8.826,12.37c-2.051,0-3.646-1.595-3.646-3.591c0-1.997,1.654-3.592,3.646-3.592
			c1.994,0,3.648,1.595,3.648,3.592C12.475,10.775,10.822,12.37,8.826,12.37z"/>
	</g>
</g>
</svg>
