<?xml version="1.0" encoding="utf-8"?>
<!-- Generator: Adobe Illustrator 16.0.3, SVG Export Plug-In . SVG Version: 6.00 Build 0)  -->
<!DOCTYPE svg PUBLIC "-//W3C//DTD SVG 1.1//EN" "http://www.w3.org/Graphics/SVG/1.1/DTD/svg11.dtd">
<svg version="1.1" id="Layer_1" xmlns="http://www.w3.org/2000/svg" xmlns:xlink="http://www.w3.org/1999/xlink" x="0px" y="0px"
	 width="16px" height="16px" viewBox="0 0 16 16" enable-background="new 0 0 16 16" xml:space="preserve">
<g>
	<path fill="#00CE91" d="M8,0C3.59,0,0,3.589,0,7.999C0,12.411,3.59,16,8,16c4.412,0,8-3.589,8-8.001C16,3.589,12.412,0,8,0z M8,15
		c-3.859,0-7-3.141-7-7.001C1,4.14,4.141,1,8,1c3.86,0,7,3.14,7,6.999C15,11.859,11.86,15,8,15z"/>
	<polygon fill="#00CE91" points="8.5,4.348 7.5,4.348 7.5,7.5 4.348,7.5 4.348,8.5 7.5,8.5 7.5,11.652 8.5,11.652 8.5,8.5 
		11.652,8.5 11.652,7.5 8.5,7.5 	"/>
</g>
</svg>
