<?xml version="1.0" encoding="utf-8"?>
<!-- Generator: Adobe Illustrator 16.0.3, SVG Export Plug-In . SVG Version: 6.00 Build 0)  -->
<!DOCTYPE svg PUBLIC "-//W3C//DTD SVG 1.1//EN" "http://www.w3.org/Graphics/SVG/1.1/DTD/svg11.dtd">
<svg version="1.1" id="Layer_1" xmlns="http://www.w3.org/2000/svg" xmlns:xlink="http://www.w3.org/1999/xlink" x="0px" y="0px"
	 width="29.486px" height="34.745px" viewBox="0 0 29.486 34.745" enable-background="new 0 0 29.486 34.745" xml:space="preserve">
<g>
	<path fill="#CCCCCC" d="M21.5,0h-21C0.223,0,0,0.224,0,0.5v26.22c0,0.276,0.223,0.5,0.5,0.5h10.271
		c-0.008-0.167-0.025-0.331-0.025-0.5s0.018-0.333,0.025-0.5H1V1h20v15.028c0.154-0.007,0.306-0.023,0.461-0.023
		c0.182,0,0.359,0.018,0.539,0.027V0.5C22,0.224,21.775,0,21.5,0z"/>
	<g>
		<path fill="#2283F6" d="M21.461,18.696c-4.424,0-8.023,3.6-8.023,8.023c0,4.425,3.6,8.025,8.023,8.025
			c4.426,0,8.025-3.601,8.025-8.025C29.486,22.296,25.887,18.696,21.461,18.696z M21.461,33.745c-3.873,0-7.023-3.151-7.023-7.025
			c0-3.873,3.15-7.023,7.023-7.023s7.025,3.15,7.025,7.023C28.486,30.594,25.334,33.745,21.461,33.745z"/>
		<path fill="#2283F6" d="M25.393,26.22h-3.432v-3.43c0-0.276-0.223-0.5-0.5-0.5c-0.275,0-0.5,0.224-0.5,0.5v3.43h-3.43
			c-0.277,0-0.5,0.224-0.5,0.5s0.223,0.5,0.5,0.5h3.43v3.432c0,0.276,0.225,0.5,0.5,0.5c0.277,0,0.5-0.224,0.5-0.5V27.22h3.432
			c0.275,0,0.5-0.224,0.5-0.5S25.668,26.22,25.393,26.22z"/>
	</g>
</g>
</svg>
