<?xml version="1.0" encoding="utf-8"?>
<!-- Generator: Adobe Illustrator 16.0.3, SVG Export Plug-In . SVG Version: 6.00 Build 0)  -->
<!DOCTYPE svg PUBLIC "-//W3C//DTD SVG 1.1//EN" "http://www.w3.org/Graphics/SVG/1.1/DTD/svg11.dtd">
<svg version="1.1" id="Layer_1" xmlns="http://www.w3.org/2000/svg" xmlns:xlink="http://www.w3.org/1999/xlink" x="0px" y="0px"
	 width="17.629px" height="17.629px" viewBox="0 0 17.629 17.629" enable-background="new 0 0 17.629 17.629" xml:space="preserve">
<g>
	<polygon points="12.186,4.736 8.814,8.107 5.443,4.737 4.736,5.444 8.107,8.814 4.736,12.186 5.443,12.893 8.814,9.521 
		12.186,12.892 12.893,12.185 9.521,8.814 12.893,5.443 	"/>
	<path d="M8.814,0C3.954,0,0,3.954,0,8.814s3.954,8.814,8.814,8.814s8.814-3.954,8.814-8.814S13.675,0,8.814,0z M8.814,16.629
		C4.506,16.629,1,13.124,1,8.814S4.506,1,8.814,1s7.814,3.505,7.814,7.814S13.123,16.629,8.814,16.629z"/>
</g>
</svg>
