<?xml version="1.0" encoding="utf-8"?>
<!-- Generator: Adobe Illustrator 16.0.3, SVG Export Plug-In . SVG Version: 6.00 Build 0)  -->
<!DOCTYPE svg PUBLIC "-//W3C//DTD SVG 1.1//EN" "http://www.w3.org/Graphics/SVG/1.1/DTD/svg11.dtd">
<svg version="1.1" id="Layer_1" xmlns="http://www.w3.org/2000/svg" xmlns:xlink="http://www.w3.org/1999/xlink" x="0px" y="0px"
	 width="29.486px" height="34.745px" viewBox="0 0 29.486 34.745" enable-background="new 0 0 29.486 34.745" xml:space="preserve">
<g>
	<path fill="#2283F6" d="M21.5,0h-21C0.224,0,0,0.224,0,0.5v26.22c0,0.276,0.224,0.5,0.5,0.5h21c0.276,0,0.5-0.224,0.5-0.5V0.5
		C22,0.224,21.776,0,21.5,0z M21,26.22H1V1h20V26.22z"/>
	<path fill="#2283F6" d="M4.567,7.288h9.392c0.276,0,0.5-0.224,0.5-0.5s-0.224-0.5-0.5-0.5H4.567c-0.276,0-0.5,0.224-0.5,0.5
		S4.291,7.288,4.567,7.288z"/>
	<path fill="#2283F6" d="M4.567,10.897h12.866c0.276,0,0.5-0.224,0.5-0.5s-0.224-0.5-0.5-0.5H4.567c-0.276,0-0.5,0.224-0.5,0.5
		S4.291,10.897,4.567,10.897z"/>
	<path fill="#2283F6" d="M4.567,14.507h5.469c0.276,0,0.5-0.224,0.5-0.5s-0.224-0.5-0.5-0.5H4.567c-0.276,0-0.5,0.224-0.5,0.5
		S4.291,14.507,4.567,14.507z"/>
</g>
</svg>
