<?xml version="1.0" encoding="utf-8"?>
<!-- Generator: Adobe Illustrator 16.0.3, SVG Export Plug-In . SVG Version: 6.00 Build 0)  -->
<!DOCTYPE svg PUBLIC "-//W3C//DTD SVG 1.1//EN" "http://www.w3.org/Graphics/SVG/1.1/DTD/svg11.dtd">
<svg version="1.1" id="Layer_1" xmlns="http://www.w3.org/2000/svg" xmlns:xlink="http://www.w3.org/1999/xlink" x="0px" y="0px"
	 width="9.853px" height="12.276px" viewBox="0 0 9.853 12.276" enable-background="new 0 0 9.853 12.276" xml:space="preserve">
<g>
	<path fill="#9CA0A4" d="M9.353,4.637H8.746V3.72C8.746,1.704,6.997,0,4.926,0c-2.07,0-3.819,1.704-3.819,3.72v0.917H0.5
		c-0.276,0-0.5,0.224-0.5,0.5v6.639c0,0.276,0.224,0.5,0.5,0.5h8.853c0.276,0,0.5-0.224,0.5-0.5V5.137
		C9.853,4.861,9.629,4.637,9.353,4.637z M2.106,3.72C2.106,2.246,3.397,1,4.926,1s2.82,1.246,2.82,2.72v0.917h-5.64V3.72z
		 M8.853,11.276H1V5.637h7.853V11.276z"/>
	<path fill="#9CA0A4" d="M4.426,9.198V9.84c0,0.276,0.224,0.5,0.5,0.5s0.5-0.224,0.5-0.5V9.198C5.881,9.003,6.2,8.552,6.2,8.027
		c0-0.703-0.571-1.274-1.274-1.274S3.651,7.324,3.651,8.027C3.651,8.552,3.971,9.003,4.426,9.198z M4.926,7.753
		c0.151,0,0.274,0.123,0.274,0.274c0,0.303-0.549,0.303-0.549,0C4.651,7.876,4.774,7.753,4.926,7.753z"/>
</g>
</svg>
